<?xml version="1.0" encoding="utf-8"?>
<!-- Generator: Adobe Illustrator 24.0.1, SVG Export Plug-In . SVG Version: 6.00 Build 0)  -->
<svg version="1.1" id="Layer_1" xmlns="http://www.w3.org/2000/svg" xmlns:xlink="http://www.w3.org/1999/xlink" x="0px" y="0px"
	 viewBox="0 0 1285.5 321.6" style="enable-background:new 0 0 1285.5 321.6;" xml:space="preserve">
<style type="text/css">
	.st0{fill:url(#SVGID_1_);}
	.st1{fill:url(#SVGID_2_);}
	.st2{fill:url(#SVGID_3_);}
	.st3{fill:url(#SVGID_4_);}
	.st4{fill:url(#SVGID_5_);}
	.st5{fill:#FFFFFF;}
</style>
<linearGradient id="SVGID_1_" gradientUnits="userSpaceOnUse" x1="308.8145" y1="-263.6355" x2="135.716" y2="-436.734" gradientTransform="matrix(1 0 0 -1 0 -120)">
	<stop  offset="0" style="stop-color:#DDDDDD"/>
	<stop  offset="0.1109" style="stop-color:#EFEFEF"/>
	<stop  offset="0.2656" style="stop-color:#EFEFEF"/>
	<stop  offset="0.4392" style="stop-color:#DFDFDF"/>
	<stop  offset="0.6451" style="stop-color:#FDFDFD"/>
	<stop  offset="0.9663" style="stop-color:#FFFFFF"/>
	<stop  offset="1" style="stop-color:#FFFFFF"/>
</linearGradient>
<path class="st0" d="M344.1,312.9c0,2.4-0.1,4.9-0.4,7.4c0,0.5-0.1,0.9-0.2,1.4l-0.3-1.5l-187.7-18.3h-0.1h-0.1l-5.1-0.5l-0.9-0.1
	l0,0l-32.1-3.1c-2.8-0.7-5.7-1.4-8.4-2.2c-29.4-8.6-55.1-26-74.1-49.1c-5.1-6.2-9.6-12.8-13.7-19.7c-1-1.8-2.1-3.7-3-5.5
	c10.8-4.4,22.9-6.3,35.3-5.1l48.1,4.7l8.9,0.9l12,1.2l0,0l7.8,0.8l19.2,1.9l7.9,0.8l82.6,8.1l0,0l13.4,1.3l7.3,0.7l13.1,1.3l2.5,0.3
	C315.1,242.1,344.1,274.8,344.1,312.9z"/>
<linearGradient id="SVGID_2_" gradientUnits="userSpaceOnUse" x1="263.5" y1="-272" x2="1" y2="-272" gradientTransform="matrix(1 0 0 -1 0 -120)">
	<stop  offset="0" style="stop-color:#DDDDDD"/>
	<stop  offset="0.133" style="stop-color:#EFEFEF"/>
	<stop  offset="0.3601" style="stop-color:#EFEFEF"/>
	<stop  offset="0.5835" style="stop-color:#EFEFEF"/>
	<stop  offset="0.7996" style="stop-color:#FFFFFF"/>
	<stop  offset="1" style="stop-color:#FFFFFF"/>
</linearGradient>
<path class="st1" d="M263.5,189.5c0,0.9,0,1.9,0,2.8c0,0.8,0,1.5-0.1,2.3c0,0.6,0,1.2-0.1,1.7l0,0c0,0.4,0,0.8-0.1,1.1
	c-0.1,0.9-0.1,1.8-0.2,2.8c0,0.4-0.1,0.8-0.1,1.2c0,0.1,0,0.2,0,0.3c-0.1,0.6-0.1,1.2-0.2,1.8c0,0.1,0,0.3-0.1,0.4
	c0,0.5-0.1,0.9-0.2,1.4c0,0.1,0,0.2,0,0.2c-0.1,0.5-0.1,1-0.2,1.5c-0.1,0.6-0.2,1.2-0.3,1.8c-0.1,0.5-0.2,1-0.3,1.4l0,0
	c-0.1,0.4-0.2,0.9-0.2,1.3c-0.1,0.3-0.1,0.6-0.2,0.9c-0.1,0.4-0.2,0.9-0.3,1.3c0,0.1,0,0.2-0.1,0.3c-0.1,0.5-0.2,0.9-0.3,1.4
	c-0.1,0.4-0.2,0.7-0.3,1.1c-0.1,0.5-0.3,1.1-0.4,1.6c-0.2,0.8-0.4,1.5-0.6,2.3c-0.4,1.5-0.9,3-1.4,4.5c-0.1,0.3-0.2,0.6-0.3,0.9
	c-0.6,1.7-1.2,3.3-1.8,4.9c-0.2,0.6-0.5,1.2-0.7,1.8c-0.5,1.3-1.1,2.5-1.6,3.7c-0.1,0.3-0.2,0.5-0.4,0.8c-0.2,0.4-0.4,0.9-0.6,1.3
	c-0.3,0.6-0.6,1.3-0.9,1.9c-0.3,0.5-0.5,1-0.8,1.6c0,0.1-0.1,0.1-0.1,0.2c-0.2,0.3-0.3,0.6-0.5,0.9c-0.3,0.5-0.6,1.1-0.9,1.6
	s-0.5,0.9-0.8,1.4c-0.1,0.2-0.2,0.3-0.3,0.5c-0.3,0.6-0.7,1.2-1.1,1.8c-1.5,2.5-3.2,5-4.9,7.3c-0.3,0.4-0.6,0.9-1,1.3
	c-0.4,0.6-0.9,1.2-1.3,1.8c-0.4,0.6-0.9,1.2-1.4,1.7c-0.5,0.6-1,1.3-1.5,1.9c-1,1.2-2.1,2.4-3.1,3.6c-0.4,0.5-0.8,0.9-1.2,1.3
	c-0.8,0.9-1.7,1.8-2.5,2.6c-0.3,0.3-0.6,0.6-0.9,0.9c-0.6,0.5-1.1,1.1-1.7,1.6s-1.1,1.1-1.7,1.6c-3.2,2.8-6.5,5.5-10,7.9
	c-0.3,0.2-0.5,0.4-0.8,0.6l0,0c-0.6,0.4-1.2,0.8-1.8,1.2c-1.5,1-3,1.9-4.5,2.8c-3.7,2.2-7.5,4.2-11.5,6c-0.3,0.1-0.5,0.3-0.8,0.4
	l0,0c-0.7,0.3-1.4,0.6-2.1,0.9c-0.8,0.4-1.7,0.7-2.5,1c-0.7,0.3-1.4,0.5-2,0.8c-0.9,0.3-1.7,0.6-2.5,0.9c-0.6,0.2-1.1,0.4-1.7,0.6
	c-0.4,0.1-0.8,0.3-1.2,0.4c-0.8,0.2-1.6,0.5-2.4,0.7c-0.3,0.1-0.6,0.2-0.9,0.2c-1.7,0.5-3.4,0.9-5.1,1.3c-0.8,0.2-1.5,0.3-2.2,0.5
	c-0.1,0-0.1,0-0.2,0c-0.6,0.1-1.2,0.3-1.9,0.4c-0.1,0-0.2,0-0.3,0c-0.5,0.1-0.9,0.2-1.4,0.2c-0.1,0-0.2,0-0.2,0
	c-0.4,0.1-0.7,0.1-1.1,0.2c-0.4,0.1-0.8,0.1-1.2,0.2c-0.7,0.1-1.5,0.2-2.2,0.3c-0.6,0.1-1.1,0.1-1.7,0.2c-0.3,0-0.6,0.1-0.8,0.1
	c-0.3,0-0.5,0.1-0.8,0.1c-1,0.1-1.9,0.2-2.9,0.2c-0.5,0-1.1,0.1-1.6,0.1c-0.3,0-0.5,0-0.8,0s-0.7,0-1,0c-0.5,0-1.1,0-1.6,0
	c-1,0-1.9,0-2.9,0s-1.9,0-2.9,0c-10.6-0.2-20.8-1.5-30.8-3.8c-2.8-0.7-5.7-1.4-8.4-2.2C79.7,287.4,54,270,35,246.9
	c-5.1-6.2-9.6-12.8-13.7-19.7c-1-1.8-2.1-3.7-3-5.5C7.2,200.9,1,177.1,1,152C1,70.1,66.6,3.6,148.1,2C87.3,3.6,38.5,53.3,38.5,114.5
	c0,13.1,2.3,25.8,6.4,37.5c0.3,0.8,0.6,1.5,0.9,2.3c0.2,0.5,0.3,0.9,0.5,1.4c0.1,0.3,0.2,0.6,0.3,0.8c0.5,1.1,0.9,2.3,1.4,3.4
	c0.2,0.4,0.3,0.7,0.5,1.1c0.2,0.4,0.4,0.9,0.6,1.3c1.1,2.4,2.3,4.8,3.7,7.1c0.3,0.5,0.6,1.1,0.9,1.6c0.1,0.2,0.2,0.4,0.3,0.5
	c0.3,0.5,0.6,1,0.9,1.5c0.8,1.3,1.7,2.7,2.5,4c0.3,0.5,0.6,0.9,1,1.4s0.7,1,1.1,1.5c0.1,0.2,0.2,0.3,0.4,0.5c0.3,0.5,0.7,0.9,1,1.4
	c0.8,1.1,1.7,2.2,2.6,3.3c0.4,0.5,0.8,1,1.3,1.5c2.4,2.8,4.9,5.6,7.6,8.2c0.9,0.8,1.7,1.7,2.6,2.5c0.5,0.5,1.1,1,1.6,1.4
	c0.5,0.5,1,0.9,1.5,1.3c0.5,0.5,1.1,0.9,1.6,1.4c0.4,0.4,0.9,0.7,1.3,1.1c0.6,0.5,1.3,1,1.9,1.5c0.5,0.4,1,0.7,1.5,1.1
	c0.1,0.1,0.2,0.2,0.3,0.2c0.5,0.4,1.1,0.8,1.6,1.2c1.1,0.8,2.2,1.5,3.3,2.2c2.8,1.8,5.7,3.5,8.7,5.1c0.3,0.2,0.7,0.3,1,0.5
	c1.4,0.8,2.9,1.5,4.3,2.1c0.5,0.2,1,0.5,1.5,0.7c1.5,0.7,3,1.3,4.5,1.9c0.5,0.2,1,0.4,1.5,0.6c0.9,0.4,1.8,0.7,2.7,1
	c0.6,0.2,1.2,0.4,1.8,0.6c0.5,0.2,1,0.3,1.5,0.5c1.6,0.5,3.2,1,4.8,1.4c0.2,0.1,0.4,0.1,0.6,0.1c0.5,0.1,0.9,0.2,1.4,0.4
	c0.6,0.1,1.1,0.3,1.7,0.4c0.5,0.1,1,0.2,1.5,0.3c0.7,0.1,1.4,0.3,2,0.4c0.7,0.2,1.4,0.3,2.2,0.4c0.5,0.1,1.1,0.2,1.7,0.3
	c1.2,0.2,2.5,0.4,3.7,0.5c0.5,0.1,1,0.1,1.5,0.2c0.9,0.1,1.7,0.2,2.6,0.3c1.2,0.1,2.5,0.2,3.7,0.3c1.5,0.1,3,0.1,4.5,0.2
	c0.7,0,1.5,0,2.2,0s1.5,0,2.2,0c1.4,0,2.8-0.1,4.2-0.2c2-0.2,4.1-0.4,6.1-0.8C199,220,226,189.2,226,152c0-40.7-32.4-73.8-72.8-75
	c48,0.9,88.7,31.9,103.9,75C261.2,163.7,263.5,176.3,263.5,189.5z"/>
<linearGradient id="SVGID_3_" gradientUnits="userSpaceOnUse" x1="38.5" y1="-272" x2="301" y2="-272" gradientTransform="matrix(1 0 0 -1 0 -120)">
	<stop  offset="0" style="stop-color:#DDDDDD"/>
	<stop  offset="0.1568" style="stop-color:#EFEFEF"/>
	<stop  offset="0.3668" style="stop-color:#EFEFEF"/>
	<stop  offset="0.578" style="stop-color:#FFFFFF"/>
	<stop  offset="0.789" style="stop-color:#FFFFFF"/>
	<stop  offset="1" style="stop-color:#FFFFFF"/>
</linearGradient>
<path class="st2" d="M301,152c0,81.9-65.6,148.4-147.1,150c60.8-1.5,109.6-51.3,109.6-112.5c0-13.2-2.3-25.8-6.4-37.5
	c-15.2-43-55.9-74.1-103.9-75c-0.7,0-1.5,0-2.2,0s-1.5,0-2.2,0C108.4,78.2,76,111.3,76,152s32.4,73.8,72.8,75
	c-48-0.9-88.7-31.9-103.9-75c-4.1-11.7-6.4-24.4-6.4-37.5C38.5,53.3,87.3,3.6,148.1,2c1,0,1.9,0,2.9,0s1.9,0,2.9,0
	C235.4,3.6,301,70.1,301,152z"/>
<linearGradient id="SVGID_4_" gradientUnits="userSpaceOnUse" x1="495.4515" y1="-273.0774" x2="721.8" y2="-273.0774" gradientTransform="matrix(1 0 0 -1 0 -120)">
	<stop  offset="0" style="stop-color:#DDDDDD"/>
	<stop  offset="1" style="stop-color:#FFFFFF"/>
</linearGradient>
<path class="st3" d="M721.8,292c-44.6,24.7-100.8,8.5-125.5-36.2l-16-28.9v-0.1l-45.5-82.5L507,94.2c-13.5-24.5-14.8-52.4-5.8-76.7
	c0.2-0.2,0.3-0.4,0.5-0.5c8.3-8.9,20.1-14.4,33.1-14.4c12.6,0,24,5.2,32.2,13.5c0.2,0.2,0.4,0.4,0.6,0.6c0.2,0.2,0.4,0.4,0.6,0.7
	c-0.3-0.7-0.5-1.4-0.8-2.1c0.1,0.1,0.1,0.1,0.2,0.2c0.2,0.2,0.4,0.4,0.6,0.7c1.1,1.2,2.1,2.4,3,3.7c0.1,0.2,0.3,0.4,0.4,0.6l5.3,9.7
	L721.8,292z"/>
<linearGradient id="SVGID_5_" gradientUnits="userSpaceOnUse" x1="349" y1="-273.0949" x2="575.2868" y2="-273.0949" gradientTransform="matrix(1 0 0 -1 0 -120)">
	<stop  offset="0" style="stop-color:#DDDDDD"/>
	<stop  offset="0.0243" style="stop-color:#DDDDDD"/>
	<stop  offset="0.4671" style="stop-color:#EFEFEF"/>
	<stop  offset="0.5" style="stop-color:#EFEFEF"/>
	<stop  offset="0.8065" style="stop-color:#FFFFFF"/>
	<stop  offset="1" style="stop-color:#FFFFFF"/>
</linearGradient>
<path class="st4" d="M563.8,94.2L536,144.4l-45.4,82.3v0.1l-16.1,29.1c-24.7,44.6-80.8,60.8-125.5,36.2L494.3,29l0,0l4.4-8l0,0
	c1.1-1.7,2.4-3.2,3.8-4.8c0.2-0.2,0.3-0.4,0.5-0.5c0.1-0.1,0.2-0.2,0.3-0.3c-0.3,0.7-0.6,1.4-0.8,2.1c0.2-0.2,0.3-0.4,0.5-0.5
	c8.3-8.9,20.1-14.4,33.1-14.4c12.6,0,24,5.2,32.2,13.5c0.2,0.2,0.4,0.4,0.6,0.6c0.2,0.2,0.4,0.4,0.6,0.7
	C578.5,41.6,577.3,69.7,563.8,94.2z"/>
<g>
	<path class="st5" d="M893,96.8c14.6,9.2,26.1,22.1,34.5,38.5c8.5,16.4,12.7,35,12.7,55.8s-4.2,39.5-12.5,56s-19.7,29.4-34.2,38.6
		c-14.4,9.2-30.4,13.9-47.8,13.9c-12.5,0-24.3-2.5-35.3-7.6c-11.1-5.1-20.2-11.3-27.5-18.5v2.3c0,6.8-2.2,12.4-6.6,17
		c-4.4,4.6-10,6.8-16.8,6.8s-12.4-2.2-16.8-6.6c-4.4-4.4-6.6-10.1-6.6-17.2V30.6c0-6.8,2.2-12.4,6.6-17c4.4-4.6,10-6.8,16.8-6.8
		s12.4,2.3,16.8,6.8c4.4,4.6,6.6,10.2,6.6,17v81.6c6.2-7.8,15-14.6,26.2-20.5s22.9-8.8,35.1-8.8C862.2,82.9,878.4,87.6,893,96.8z
		 M879.4,237.9c10.7-12.5,16-28.1,16-46.8s-5.3-34.3-15.8-46.6c-10.5-12.4-24.3-18.5-41.2-18.5s-30.7,6.2-41.4,18.5
		c-10.7,12.4-16,27.9-16,46.6s5.3,34.4,16,46.8c10.7,12.5,24.5,18.7,41.4,18.7C855,256.6,868.7,250.4,879.4,237.9z"/>
	<path class="st5" d="M1023.2,288.8c-4.6,4.6-10.2,6.8-17,6.8c-6.5,0-12-2.3-16.4-6.8s-6.6-10.2-6.6-17V30.6c0-6.8,2.3-12.4,6.8-17
		c4.6-4.6,10.2-6.8,17-6.8c6.5,0,12,2.3,16.4,6.8c4.4,4.6,6.6,10.2,6.6,17v241.2C1030,278.6,1027.7,284.3,1023.2,288.8z"/>
	<path class="st5" d="M1260.7,201.6c-4.7,3.9-10.1,5.9-16.4,5.9h-128.8c3.1,15.4,10.3,27.4,21.5,36.1c11.2,8.7,23.8,13.1,37.9,13.1
		c10.7,0,19-1,25-2.9c6-2,10.7-4,14.2-6.2s5.9-3.7,7.2-4.5c4.7-2.3,9.1-3.5,13.3-3.5c5.5,0,10.1,2,14.1,5.9
		c3.9,3.9,5.9,8.5,5.9,13.7c0,7-3.6,13.4-10.9,19.1c-7.3,6-17,11.1-29.3,15.2c-12.2,4.2-24.6,6.2-37.1,6.2
		c-21.9,0-40.9-4.5-57.2-13.7c-16.3-9.1-28.8-21.7-37.7-37.7c-8.9-16-13.3-34-13.3-54.1c0-22.4,4.7-42,14.1-58.9
		s21.7-29.9,37.1-38.8c15.4-9,31.7-13.5,49.2-13.5c17.2,0,33.4,4.7,48.6,14.1s27.4,22,36.5,37.9s13.7,33.1,13.7,51.5
		C1267.9,192.6,1265.4,197.7,1260.7,201.6z M1115.9,168.4h102.3v-2.7c-1-10.9-6.4-20.3-16-28.1s-20.6-11.7-32.8-11.7
		C1139.2,125.9,1121.4,140.1,1115.9,168.4z"/>
</g>
</svg>
